<!DOCTYPE svg PUBLIC "-//W3C//DTD SVG 1.1//EN" "http://www.w3.org/Graphics/SVG/1.1/DTD/svg11.dtd">
<!-- Uploaded to: SVG Repo, www.svgrepo.com, Transformed by: SVG Repo Mixer Tools -->
<svg fill="#645EA7" width="800px" height="800px" viewBox="0 0 14 14" role="img" focusable="false" aria-hidden="true" xmlns="http://www.w3.org/2000/svg">
<g id="SVGRepo_bgCarrier" stroke-width="0"/>
<g id="SVGRepo_tracerCarrier" stroke-linecap="round" stroke-linejoin="round"/>
<g id="SVGRepo_iconCarrier">
<path d="m 12.666667,7.666665 -1.666667,0 0,2 -0.666667,-0.44375 -0.6666663,0.44375 0,-2 -1.6666667,0 c -0.1833333,0 -0.3333333,0.15 -0.3333333,0.33334 l 0,4 c 0,0.18333 0.15,0.33333 0.3333333,0.33333 l 4.666667,0 C 12.85,12.333335 13,12.183335 13,12.000005 l 0,-4 c 0,-0.18334 -0.15,-0.33334 -0.333333,-0.33334 z m -8.0000003,-1.33333 4.6666666,0 c 0.1833334,0 0.3333334,-0.15 0.3333334,-0.33333 l 0,-4 c 0,-0.18334 -0.15,-0.33334 -0.3333334,-0.33334 l -1.6666666,0 0,2 L 7,3.222915 l -0.6666667,0.44375 0,-2 -1.6666666,0 c -0.1833334,0 -0.3333334,0.15 -0.3333334,0.33334 l 0,4 c 0,0.18333 0.15,0.33333 0.3333334,0.33333 z M 6,7.666665 l -1.6666667,0 0,2 L 3.6666667,9.222915 3,9.666665 l 0,-2 -1.6666667,0 C 1.15,7.666665 1,7.816665 1,8.000005 l 0,4 c 0,0.18333 0.15,0.33333 0.3333333,0.33333 l 4.6666667,0 c 0.1833333,0 0.3333333,-0.15 0.3333333,-0.33333 l 0,-4 c 0,-0.18334 -0.15,-0.33334 -0.3333333,-0.33334 z"/>
</g>
</svg>