<svg width="111" height="107" viewBox="0 0 111 107" fill="none" xmlns="http://www.w3.org/2000/svg">
<path d="M0.953842 70.3965H3.40511L6.65638 81.0631L9.87688 70.3965H12.1025L7.67176 85.3298H5.62049L0.953842 70.3965ZM0 70.3965H2.30768L2.66665 80.0785V85.3298H0V70.3965ZM10.9743 70.3965H13.2922V85.3298H10.6256V80.0785L10.9743 70.3965Z" fill="white"/>
<path d="M26.2255 76.6734V79.1862C26.2255 80.2392 26.1024 81.1623 25.8563 81.9555C25.6101 82.7486 25.2546 83.4119 24.7896 83.9452C24.3247 84.4717 23.7674 84.8683 23.1178 85.1349C22.4683 85.4016 21.7503 85.5349 20.964 85.5349C20.1708 85.5349 19.4495 85.4016 18.7999 85.1349C18.1503 84.8683 17.5897 84.4717 17.1179 83.9452C16.6529 83.4119 16.2905 82.7486 16.0307 81.9555C15.7777 81.1623 15.6512 80.2392 15.6512 79.1862V76.6734C15.6512 75.5999 15.7777 74.6598 16.0307 73.8529C16.2837 73.0461 16.6427 72.3726 17.1076 71.8324C17.5794 71.2923 18.1401 70.8854 18.7897 70.6119C19.4392 70.3316 20.1572 70.1914 20.9435 70.1914C21.7366 70.1914 22.4546 70.3316 23.0973 70.6119C23.7469 70.8854 24.3042 71.2923 24.7691 71.8324C25.2409 72.3726 25.5999 73.0461 25.846 73.8529C26.099 74.6598 26.2255 75.5999 26.2255 76.6734ZM23.4973 79.1862V76.6529C23.4973 75.9213 23.4426 75.2922 23.3332 74.7657C23.2238 74.2393 23.0597 73.8119 22.8409 73.4837C22.6221 73.1487 22.352 72.9025 22.0307 72.7452C21.7161 72.588 21.3537 72.5093 20.9435 72.5093C20.5264 72.5093 20.1572 72.588 19.8358 72.7452C19.5213 72.9025 19.2546 73.1487 19.0358 73.4837C18.8238 73.8119 18.6632 74.2393 18.5538 74.7657C18.4444 75.2922 18.3897 75.9213 18.3897 76.6529V79.1862C18.3897 79.9042 18.4444 80.5196 18.5538 81.0324C18.6632 81.5452 18.8273 81.9623 19.0461 82.2837C19.2717 82.605 19.5418 82.8443 19.8563 83.0016C20.1777 83.152 20.5469 83.2272 20.964 83.2272C21.3743 83.2272 21.7366 83.152 22.0512 83.0016C22.3725 82.8443 22.6392 82.605 22.8512 82.2837C23.07 81.9623 23.2307 81.5452 23.3332 81.0324C23.4426 80.5196 23.4973 79.9042 23.4973 79.1862Z" fill="white"/>
<path d="M38.9024 76.6734V79.1862C38.9024 80.2392 38.7793 81.1623 38.5331 81.9555C38.287 82.7486 37.9314 83.4119 37.4665 83.9452C37.0015 84.4717 36.4443 84.8683 35.7947 85.1349C35.1451 85.4016 34.4272 85.5349 33.6409 85.5349C32.8477 85.5349 32.1263 85.4016 31.4768 85.1349C30.8272 84.8683 30.2665 84.4717 29.7947 83.9452C29.3298 83.4119 28.9674 82.7486 28.7076 81.9555C28.4546 81.1623 28.3281 80.2392 28.3281 79.1862V76.6734C28.3281 75.5999 28.4546 74.6598 28.7076 73.8529C28.9605 73.0461 29.3195 72.3726 29.7845 71.8324C30.2563 71.2923 30.8169 70.8854 31.4665 70.6119C32.1161 70.3316 32.834 70.1914 33.6204 70.1914C34.4135 70.1914 35.1315 70.3316 35.7742 70.6119C36.4238 70.8854 36.981 71.2923 37.446 71.8324C37.9178 72.3726 38.2767 73.0461 38.5229 73.8529C38.7759 74.6598 38.9024 75.5999 38.9024 76.6734ZM36.1742 79.1862V76.6529C36.1742 75.9213 36.1195 75.2922 36.0101 74.7657C35.9007 74.2393 35.7366 73.8119 35.5178 73.4837C35.299 73.1487 35.0289 72.9025 34.7075 72.7452C34.393 72.588 34.0306 72.5093 33.6204 72.5093C33.2033 72.5093 32.834 72.588 32.5127 72.7452C32.1981 72.9025 31.9315 73.1487 31.7127 73.4837C31.5007 73.8119 31.34 74.2393 31.2306 74.7657C31.1212 75.2922 31.0665 75.9213 31.0665 76.6529V79.1862C31.0665 79.9042 31.1212 80.5196 31.2306 81.0324C31.34 81.5452 31.5041 81.9623 31.7229 82.2837C31.9486 82.605 32.2187 82.8443 32.5332 83.0016C32.8545 83.152 33.2238 83.2272 33.6409 83.2272C34.0511 83.2272 34.4135 83.152 34.728 83.0016C35.0494 82.8443 35.3161 82.605 35.528 82.2837C35.7468 81.9623 35.9075 81.5452 36.0101 81.0324C36.1195 80.5196 36.1742 79.9042 36.1742 79.1862Z" fill="white"/>
<path d="M41.2819 70.3965H45.928C46.9194 70.3965 47.7639 70.5675 48.4613 70.9094C49.1587 71.2512 49.6887 71.7572 50.051 72.4273C50.4203 73.0974 50.6049 73.9213 50.6049 74.8991C50.6049 75.6786 50.4921 76.3555 50.2664 76.9298C50.0476 77.4974 49.7331 77.9726 49.3228 78.3555C48.9194 78.7384 48.4305 79.0358 47.8562 79.2478L47.0254 79.7196H43.1793L43.169 77.4324H45.8664C46.3109 77.4324 46.6801 77.3333 46.9741 77.135C47.275 76.9367 47.4972 76.6632 47.6408 76.3145C47.7912 75.9589 47.8664 75.5521 47.8664 75.0939C47.8664 74.5948 47.7981 74.1675 47.6613 73.8119C47.5314 73.4495 47.3228 73.1726 47.0357 72.9811C46.7553 72.7897 46.3861 72.694 45.928 72.694H44.0306V85.3298H41.2819V70.3965ZM48.1536 85.3298L45.3536 78.6426H48.2357L51.0869 85.1862V85.3298H48.1536Z" fill="white"/>
<path d="M61.0356 76.5298V78.817H54.8305V76.5298H61.0356ZM55.5485 70.3965V85.3298H52.7997V70.3965H55.5485ZM63.0971 70.3965V85.3298H60.3689V70.3965H63.0971Z" fill="white"/>
<path d="M76.0304 76.6734V79.1862C76.0304 80.2392 75.9073 81.1623 75.6612 81.9555C75.415 82.7486 75.0595 83.4119 74.5945 83.9452C74.1296 84.4717 73.5723 84.8683 72.9227 85.1349C72.2732 85.4016 71.5552 85.5349 70.7689 85.5349C69.9757 85.5349 69.2544 85.4016 68.6048 85.1349C67.9552 84.8683 67.3945 84.4717 66.9228 83.9452C66.4578 83.4119 66.0954 82.7486 65.8356 81.9555C65.5826 81.1623 65.4561 80.2392 65.4561 79.1862V76.6734C65.4561 75.5999 65.5826 74.6598 65.8356 73.8529C66.0886 73.0461 66.4475 72.3726 66.9125 71.8324C67.3843 71.2923 67.945 70.8854 68.5945 70.6119C69.2441 70.3316 69.9621 70.1914 70.7484 70.1914C71.5415 70.1914 72.2595 70.3316 72.9022 70.6119C73.5518 70.8854 74.109 71.2923 74.574 71.8324C75.0458 72.3726 75.4048 73.0461 75.6509 73.8529C75.9039 74.6598 76.0304 75.5999 76.0304 76.6734ZM73.3022 79.1862V76.6529C73.3022 75.9213 73.2475 75.2922 73.1381 74.7657C73.0287 74.2393 72.8646 73.8119 72.6458 73.4837C72.427 73.1487 72.1569 72.9025 71.8356 72.7452C71.521 72.588 71.1586 72.5093 70.7484 72.5093C70.3313 72.5093 69.9621 72.588 69.6407 72.7452C69.3262 72.9025 69.0595 73.1487 68.8407 73.4837C68.6287 73.8119 68.468 74.2393 68.3587 74.7657C68.2492 75.2922 68.1945 75.9213 68.1945 76.6529V79.1862C68.1945 79.9042 68.2492 80.5196 68.3587 81.0324C68.468 81.5452 68.6321 81.9623 68.851 82.2837C69.0766 82.605 69.3467 82.8443 69.6612 83.0016C69.9826 83.152 70.3518 83.2272 70.7689 83.2272C71.1791 83.2272 71.5415 83.152 71.8561 83.0016C72.1774 82.8443 72.4441 82.605 72.6561 82.2837C72.8749 81.9623 73.0355 81.5452 73.1381 81.0324C73.2475 80.5196 73.3022 79.9042 73.3022 79.1862Z" fill="white"/>
<path d="M85.1791 70.3965H87.9278V80.7144C87.9278 81.8563 87.7158 82.7828 87.2919 83.4939C86.868 84.205 86.2902 84.7247 85.5586 85.0529C84.8269 85.3742 84.003 85.5349 83.0868 85.5349C82.15 85.5349 81.3158 85.3742 80.5842 85.0529C79.8526 84.7247 79.2783 84.205 78.8612 83.4939C78.4509 82.7828 78.2458 81.8563 78.2458 80.7144V70.3965H80.9842V80.7144C80.9842 81.3914 81.0663 81.9144 81.2304 82.2837C81.4013 82.6529 81.6406 82.9059 81.9483 83.0426C82.256 83.1794 82.6355 83.2478 83.0868 83.2478C83.5381 83.2478 83.9175 83.1794 84.2252 83.0426C84.5329 82.9059 84.7688 82.6529 84.9329 82.2837C85.097 81.9144 85.1791 81.3914 85.1791 80.7144V70.3965Z" fill="white"/>
<path d="M96.7277 81.4426C96.7277 81.1486 96.697 80.8888 96.6354 80.6632C96.5807 80.4307 96.4713 80.2187 96.3072 80.0273C96.1431 79.8358 95.9072 79.6478 95.5995 79.4632C95.2919 79.2717 94.8953 79.0768 94.4098 78.8785C93.8354 78.6461 93.2919 78.3999 92.779 78.1401C92.2662 77.8734 91.8081 77.5657 91.4047 77.217C91.0013 76.8683 90.6833 76.458 90.4509 75.9863C90.2252 75.5145 90.1124 74.964 90.1124 74.335C90.1124 73.7196 90.2218 73.1589 90.4406 72.6529C90.6662 72.1401 90.9842 71.7025 91.3944 71.3401C91.8047 70.9709 92.2902 70.6871 92.8508 70.4888C93.4184 70.2906 94.044 70.1914 94.7278 70.1914C95.6918 70.1914 96.5192 70.3931 97.2098 70.7965C97.9004 71.1999 98.4337 71.747 98.8098 72.4375C99.1859 73.1281 99.3739 73.9076 99.3739 74.776H96.6354C96.6354 74.3247 96.5671 73.9247 96.4303 73.576C96.3004 73.2205 96.0919 72.9435 95.8047 72.7452C95.5175 72.547 95.1483 72.4478 94.697 72.4478C94.2731 72.4478 93.9243 72.5333 93.6508 72.7042C93.3773 72.8683 93.1756 73.094 93.0457 73.3811C92.9158 73.6615 92.8508 73.9828 92.8508 74.3452C92.8508 74.6051 92.909 74.841 93.0252 75.0529C93.1483 75.258 93.3158 75.4461 93.5278 75.617C93.7397 75.788 93.9961 75.9521 94.297 76.1093C94.6047 76.2598 94.9466 76.4068 95.3226 76.5504C96.0132 76.8102 96.6183 77.0974 97.138 77.4119C97.6577 77.7196 98.0884 78.0683 98.4303 78.458C98.779 78.8409 99.0388 79.2751 99.2098 79.7606C99.3807 80.2461 99.4662 80.7999 99.4662 81.4221C99.4662 82.0375 99.3602 82.5982 99.1482 83.1042C98.9363 83.6101 98.6286 84.0443 98.2252 84.4067C97.8218 84.7691 97.3329 85.0495 96.7585 85.2477C96.191 85.4392 95.5585 85.5349 94.8611 85.5349C94.191 85.5349 93.5517 85.4392 92.9431 85.2477C92.3414 85.0495 91.8081 84.752 91.3432 84.3554C90.8782 83.9589 90.5124 83.4597 90.2457 82.858C89.9791 82.2495 89.8457 81.5349 89.8457 80.7144H92.5842C92.5842 81.1726 92.6355 81.5691 92.738 81.9042C92.8406 82.2324 92.9944 82.499 93.1996 82.7042C93.4047 82.9025 93.6508 83.0495 93.938 83.1452C94.2252 83.2341 94.55 83.2785 94.9124 83.2785C95.3431 83.2785 95.6918 83.1999 95.9585 83.0426C96.2252 82.8854 96.4201 82.67 96.5431 82.3965C96.6662 82.1161 96.7277 81.7982 96.7277 81.4426Z" fill="white"/>
<path d="M110.04 83.0426V85.3298H103.558V83.0426H110.04ZM104.348 70.3965V85.3298H101.6V70.3965H104.348ZM109.169 76.5298V78.7555H103.558V76.5298H109.169ZM109.999 70.3965V72.694H103.558V70.3965H109.999Z" fill="white"/>
<path d="M36.2126 99.4111H38.1357C38.0741 100.144 37.869 100.798 37.5203 101.373C37.1716 101.942 36.6818 102.391 36.0511 102.719C35.4203 103.047 34.6536 103.211 33.7511 103.211C33.0588 103.211 32.4357 103.088 31.8819 102.842C31.328 102.591 30.8537 102.237 30.4588 101.78C30.0639 101.319 29.7614 100.762 29.5511 100.111C29.346 99.4598 29.2434 98.7316 29.2434 97.9264V96.9957C29.2434 96.1906 29.3485 95.4624 29.5588 94.8111C29.7742 94.1598 30.0819 93.6034 30.4819 93.1419C30.8819 92.6752 31.3613 92.3188 31.9203 92.0726C32.4844 91.8265 33.1177 91.7034 33.8203 91.7034C34.7126 91.7034 35.4665 91.8675 36.0818 92.1957C36.6972 92.5239 37.1741 92.9778 37.5126 93.5572C37.8562 94.1367 38.0664 94.8008 38.1434 95.5495H36.2203C36.169 95.0675 36.0562 94.6547 35.8818 94.3111C35.7126 93.9675 35.4613 93.706 35.128 93.5265C34.7947 93.3419 34.3588 93.2495 33.8203 93.2495C33.3793 93.2495 32.9947 93.3316 32.6665 93.4957C32.3383 93.6598 32.0639 93.9008 31.8434 94.2188C31.6229 94.5367 31.4562 94.929 31.3434 95.3957C31.2357 95.8572 31.1819 96.3854 31.1819 96.9803V97.9264C31.1819 98.4905 31.2306 99.0034 31.328 99.4649C31.4306 99.9213 31.5844 100.314 31.7895 100.642C31.9998 100.97 32.2665 101.224 32.5895 101.403C32.9126 101.583 33.2998 101.673 33.7511 101.673C34.2998 101.673 34.7434 101.585 35.0818 101.411C35.4254 101.237 35.6844 100.983 35.8588 100.65C36.0382 100.311 36.1562 99.8982 36.2126 99.4111Z" fill="white"/>
<path d="M39.3511 98.988V98.8111C39.3511 98.2111 39.4382 97.6547 39.6126 97.1418C39.7869 96.6239 40.0382 96.1752 40.3664 95.7957C40.6998 95.4111 41.1049 95.1136 41.5818 94.9034C42.0639 94.688 42.6074 94.5803 43.2126 94.5803C43.8228 94.5803 44.3664 94.688 44.8433 94.9034C45.3254 95.1136 45.7331 95.4111 46.0664 95.7957C46.3997 96.1752 46.6536 96.6239 46.8279 97.1418C47.0023 97.6547 47.0895 98.2111 47.0895 98.8111V98.988C47.0895 99.588 47.0023 100.144 46.8279 100.657C46.6536 101.17 46.3997 101.619 46.0664 102.003C45.7331 102.383 45.3279 102.68 44.851 102.896C44.3741 103.106 43.8331 103.211 43.228 103.211C42.6177 103.211 42.0716 103.106 41.5895 102.896C41.1126 102.68 40.7075 102.383 40.3741 102.003C40.0408 101.619 39.7869 101.17 39.6126 100.657C39.4382 100.144 39.3511 99.588 39.3511 98.988ZM41.2049 98.8111V98.988C41.2049 99.3623 41.2434 99.7162 41.3203 100.05C41.3972 100.383 41.5177 100.675 41.6818 100.926C41.8459 101.178 42.0562 101.375 42.3126 101.519C42.569 101.662 42.8741 101.734 43.228 101.734C43.5715 101.734 43.869 101.662 44.1203 101.519C44.3767 101.375 44.5869 101.178 44.751 100.926C44.9151 100.675 45.0356 100.383 45.1126 100.05C45.1946 99.7162 45.2356 99.3623 45.2356 98.988V98.8111C45.2356 98.4418 45.1946 98.0931 45.1126 97.7649C45.0356 97.4316 44.9126 97.1367 44.7433 96.8803C44.5792 96.6239 44.369 96.4239 44.1126 96.2803C43.8613 96.1316 43.5613 96.0572 43.2126 96.0572C42.8639 96.0572 42.5613 96.1316 42.3049 96.2803C42.0536 96.4239 41.8459 96.6239 41.6818 96.8803C41.5177 97.1367 41.3972 97.4316 41.3203 97.7649C41.2434 98.0931 41.2049 98.4418 41.2049 98.8111Z" fill="white"/>
<path d="M53.3356 101.388V97.4188C53.3356 97.1213 53.2818 96.8649 53.1741 96.6495C53.0664 96.4341 52.9023 96.2675 52.6818 96.1495C52.4664 96.0316 52.1946 95.9726 51.8664 95.9726C51.5638 95.9726 51.3023 96.0239 51.0818 96.1265C50.8613 96.229 50.6895 96.3675 50.5664 96.5418C50.4433 96.7162 50.3818 96.9136 50.3818 97.1341H48.5356C48.5356 96.8059 48.6151 96.488 48.7741 96.1803C48.9331 95.8726 49.1638 95.5983 49.4664 95.3572C49.7689 95.1162 50.1305 94.9265 50.551 94.788C50.9715 94.6495 51.4433 94.5803 51.9664 94.5803C52.592 94.5803 53.1459 94.6854 53.6279 94.8957C54.1151 95.1059 54.4971 95.4239 54.7741 95.8495C55.0561 96.27 55.1971 96.7982 55.1971 97.4341V101.134C55.1971 101.514 55.2228 101.855 55.274 102.157C55.3305 102.455 55.4099 102.714 55.5125 102.934V103.057H53.6125C53.5253 102.857 53.4561 102.603 53.4048 102.296C53.3587 101.983 53.3356 101.68 53.3356 101.388ZM53.6048 97.9957L53.6202 99.1418H52.2894C51.9459 99.1418 51.6433 99.1752 51.3818 99.2418C51.1202 99.3034 50.9023 99.3957 50.7279 99.5187C50.5536 99.6418 50.4228 99.7905 50.3356 99.9649C50.2484 100.139 50.2048 100.337 50.2048 100.557C50.2048 100.778 50.2561 100.98 50.3587 101.165C50.4613 101.344 50.61 101.485 50.8048 101.588C51.0048 101.691 51.2459 101.742 51.5279 101.742C51.9074 101.742 52.2382 101.665 52.5202 101.511C52.8074 101.352 53.033 101.16 53.1971 100.934C53.3612 100.703 53.4484 100.485 53.4587 100.28L54.0587 101.103C53.9971 101.314 53.892 101.539 53.7433 101.78C53.5946 102.021 53.3997 102.252 53.1587 102.473C52.9228 102.688 52.6382 102.865 52.3048 103.003C51.9766 103.142 51.5971 103.211 51.1664 103.211C50.6228 103.211 50.1382 103.103 49.7125 102.888C49.2869 102.667 48.9536 102.373 48.7125 102.003C48.4715 101.629 48.351 101.206 48.351 100.734C48.351 100.293 48.4331 99.9034 48.5972 99.5649C48.7664 99.2213 49.0125 98.9341 49.3356 98.7034C49.6638 98.4726 50.0638 98.2982 50.5356 98.1803C51.0074 98.0572 51.5459 97.9957 52.151 97.9957H53.6048Z" fill="white"/>
<path d="M60.9509 94.7342V96.088H56.2587V94.7342H60.9509ZM57.6125 92.6957H59.4663V100.757C59.4663 101.014 59.5022 101.211 59.574 101.35C59.651 101.483 59.7561 101.573 59.8894 101.619C60.0227 101.665 60.1792 101.688 60.3586 101.688C60.4868 101.688 60.6099 101.68 60.7279 101.665C60.8458 101.65 60.9407 101.634 61.0125 101.619L61.0202 103.034C60.8663 103.08 60.6868 103.121 60.4817 103.157C60.2817 103.193 60.051 103.211 59.7894 103.211C59.3638 103.211 58.9869 103.137 58.6586 102.988C58.3304 102.834 58.074 102.585 57.8894 102.242C57.7048 101.898 57.6125 101.442 57.6125 100.873V92.6957Z" fill="white"/>
<path d="M64.3663 94.7342V103.057H62.5048V94.7342H64.3663ZM62.3817 92.5496C62.3817 92.2675 62.474 92.0342 62.6586 91.8496C62.8484 91.6598 63.1099 91.5649 63.4432 91.5649C63.7714 91.5649 64.0304 91.6598 64.2202 91.8496C64.4099 92.0342 64.5048 92.2675 64.5048 92.5496C64.5048 92.8265 64.4099 93.0572 64.2202 93.2419C64.0304 93.4265 63.7714 93.5188 63.4432 93.5188C63.1099 93.5188 62.8484 93.4265 62.6586 93.2419C62.474 93.0572 62.3817 92.8265 62.3817 92.5496Z" fill="white"/>
<path d="M68.2355 96.5111V103.057H66.3817V94.7342H68.1278L68.2355 96.5111ZM67.9048 98.588L67.3048 98.5803C67.3099 97.9906 67.3919 97.4495 67.5509 96.9572C67.715 96.4649 67.9407 96.0418 68.2278 95.688C68.5201 95.3342 68.8689 95.0624 69.274 94.8726C69.6791 94.6777 70.1304 94.5803 70.6278 94.5803C71.0278 94.5803 71.3894 94.6367 71.7124 94.7495C72.0406 94.8572 72.3201 95.0342 72.5509 95.2803C72.7868 95.5265 72.9663 95.847 73.0893 96.2418C73.2124 96.6316 73.274 97.1111 73.274 97.6803V103.057H71.4124V97.6726C71.4124 97.2726 71.3535 96.9572 71.2355 96.7265C71.1227 96.4906 70.956 96.3239 70.7355 96.2265C70.5201 96.1239 70.2509 96.0726 69.9278 96.0726C69.6099 96.0726 69.3253 96.1393 69.074 96.2726C68.8227 96.4059 68.6099 96.588 68.4355 96.8188C68.2663 97.0495 68.1355 97.3162 68.0432 97.6188C67.9509 97.9213 67.9048 98.2444 67.9048 98.588Z" fill="white"/>
<path d="M80.497 94.7342H82.1816V102.826C82.1816 103.575 82.0226 104.211 81.7047 104.734C81.3867 105.257 80.9432 105.655 80.3739 105.926C79.8047 106.203 79.1457 106.342 78.397 106.342C78.0791 106.342 77.7252 106.296 77.3355 106.203C76.9509 106.111 76.5765 105.962 76.2124 105.757C75.8534 105.557 75.5534 105.293 75.3124 104.965L76.1816 103.873C76.4791 104.226 76.8073 104.485 77.1663 104.649C77.5252 104.814 77.9021 104.896 78.297 104.896C78.7227 104.896 79.0842 104.816 79.3816 104.657C79.6842 104.503 79.9175 104.275 80.0816 103.973C80.2457 103.67 80.3278 103.301 80.3278 102.865V96.6188L80.497 94.7342ZM74.8432 98.988V98.8264C74.8432 98.1957 74.9201 97.6213 75.074 97.1034C75.2278 96.5803 75.4483 96.1316 75.7355 95.7572C76.0227 95.3777 76.3714 95.088 76.7816 94.888C77.1919 94.6829 77.656 94.5803 78.1739 94.5803C78.7124 94.5803 79.1714 94.6777 79.5509 94.8726C79.9355 95.0675 80.256 95.347 80.5124 95.7111C80.7688 96.07 80.9688 96.5008 81.1124 97.0034C81.2611 97.5008 81.3714 98.0547 81.4432 98.6649V99.1803C81.3765 99.7752 81.2637 100.319 81.1047 100.811C80.9457 101.303 80.7355 101.729 80.4739 102.088C80.2124 102.447 79.8893 102.724 79.5047 102.919C79.1252 103.114 78.6765 103.211 78.1586 103.211C77.6509 103.211 77.1919 103.106 76.7816 102.896C76.3765 102.685 76.0278 102.391 75.7355 102.011C75.4483 101.632 75.2278 101.185 75.074 100.673C74.9201 100.155 74.8432 99.5931 74.8432 98.988ZM76.697 98.8264V98.988C76.697 99.3675 76.7329 99.7213 76.8047 100.05C76.8816 100.378 76.997 100.667 77.1509 100.919C77.3098 101.165 77.5098 101.36 77.7509 101.503C77.997 101.642 78.2868 101.711 78.6201 101.711C79.056 101.711 79.4124 101.619 79.6893 101.434C79.9714 101.25 80.1867 101.001 80.3355 100.688C80.4893 100.37 80.597 100.016 80.6585 99.6264V98.2341C80.6278 97.9316 80.5637 97.6495 80.4662 97.388C80.3739 97.1265 80.2483 96.8982 80.0893 96.7034C79.9303 96.5034 79.7303 96.3495 79.4893 96.2418C79.2483 96.129 78.9637 96.0726 78.6355 96.0726C78.3021 96.0726 78.0124 96.1444 77.7663 96.288C77.5201 96.4316 77.3175 96.629 77.1586 96.8803C77.0047 97.1316 76.8893 97.4239 76.8124 97.7572C76.7355 98.0906 76.697 98.447 76.697 98.8264Z" fill="white"/>
<path fill-rule="evenodd" clip-rule="evenodd" d="M50.6106 1.33696C48.4141 2.36411 47.0636 3.37149 44.6522 5.7817C38.7359 11.6948 33.3355 20.8632 30.4507 29.8918C29.3685 33.2785 28.9228 35.3093 28.4086 39.1967C28.0958 41.5627 28.2232 46.0099 28.6657 48.159C29.6146 52.7691 31.5343 56.3842 34.5622 59.2632C37.7824 62.3251 42.2116 63.1959 45.9777 61.5075C49.7032 59.8372 52.6326 56.1184 53.4594 52.0092C53.7722 50.4546 53.7983 48.204 53.519 46.8622C53.273 45.6803 52.3923 43.0958 51.0391 39.5844C50.6444 38.5598 49.2953 34.6638 49.1882 34.239C49.128 34 48.9617 33.4766 48.8189 33.0759C48.5592 32.3477 48.086 30.7187 47.4619 28.4056C44.5788 17.7189 45.0838 9.18972 48.9155 3.8512C49.0941 3.60243 49.6407 2.94812 50.1302 2.39706C51.0435 1.36901 51.1784 1.07138 50.6106 1.33696Z" fill="#CE241E"/>
<path fill-rule="evenodd" clip-rule="evenodd" d="M56.0814 0.107139C55.388 0.244307 54.0202 0.84251 53.1884 1.37231C52.1584 2.02834 50.5107 3.73651 49.9108 4.77038C49.389 5.66936 48.7862 7.2679 48.6513 8.10966C48.332 10.1031 48.3545 12.9339 48.707 15.1298C49.1598 17.9509 50.3891 21.8594 51.9209 25.3482C53.5464 29.0507 56.4553 34.0715 57.8935 35.6569C58.8249 36.6836 58.9712 36.4827 58.6279 34.6483C58.3431 33.1276 58.2083 29.8068 58.3367 27.4821C58.5334 23.922 59.4113 20.2071 60.8578 16.8128C61.0692 16.3169 61.3581 15.6407 61.5002 15.3101C61.6422 14.9795 62.1169 14.0057 62.5551 13.1462C62.9934 12.2866 63.6525 10.9933 64.0198 10.2721C64.3871 9.55095 64.7445 8.69632 64.8139 8.37281C64.9732 7.63059 64.9718 6.21611 64.8111 5.51921C64.4997 4.16893 63.5052 2.59083 62.3879 1.67381C61.5563 0.991219 60.0059 0.249236 59.1028 0.101369C58.2623 -0.0361602 56.7916 -0.033275 56.0814 0.107139Z" fill="#559E39"/>
<path fill-rule="evenodd" clip-rule="evenodd" d="M66.4787 4.8611C66.4385 4.96581 66.4979 5.38092 66.6109 5.78353C67.1236 7.61023 67.7783 10.643 68.0278 12.346C68.4208 15.0287 68.4244 18.8991 68.0361 21.3623C67.5763 24.2785 67.0404 26.2443 65.4372 30.8956C64.134 34.6766 63.9951 35.2973 64.0738 36.9904C64.1826 39.329 64.8552 40.8259 66.5601 42.5227C68.1492 44.1043 69.7639 44.8174 71.7996 44.837C74.0362 44.8586 75.7637 44.068 77.6343 42.1674C80.6469 39.106 81.6798 35.276 80.9527 29.8618C80.4221 25.9106 78.4951 20.8925 75.6114 15.9525C73.295 11.9843 70.0265 7.58463 67.9198 5.59851C67.028 4.75795 66.602 4.53988 66.4787 4.8611Z" fill="#72B8D1"/>
</svg>
