<svg width="76" height="74" viewBox="0 0 76 74" fill="none" xmlns="http://www.w3.org/2000/svg">
<path d="M0.658424 48.5962H2.3505L4.59481 55.9592L6.81788 48.5962H8.3542L5.29571 58.9044H3.87975L0.658424 48.5962ZM0 48.5962H1.59296L1.84076 55.2795V58.9044H0V48.5962ZM7.57542 48.5962H9.17546V58.9044H7.3347V55.2795L7.57542 48.5962Z" fill="#CE241E"/>
<path d="M18.1031 52.929V54.6636C18.1031 55.3905 18.0182 56.0276 17.8483 56.5752C17.6783 57.1227 17.4329 57.5805 17.112 57.9486C16.791 58.3121 16.4063 58.5858 15.9579 58.7699C15.5095 58.954 15.014 59.046 14.4712 59.046C13.9237 59.046 13.4257 58.954 12.9773 58.7699C12.5289 58.5858 12.1419 58.3121 11.8162 57.9486C11.4953 57.5805 11.2451 57.1227 11.0658 56.5752C10.8911 56.0276 10.8038 55.3905 10.8038 54.6636V52.929C10.8038 52.188 10.8911 51.539 11.0658 50.9821C11.2404 50.4251 11.4882 49.9602 11.8092 49.5874C12.1348 49.2145 12.5219 48.9337 12.9703 48.7449C13.4186 48.5513 13.9142 48.4546 14.457 48.4546C15.0045 48.4546 15.5001 48.5513 15.9438 48.7449C16.3922 48.9337 16.7768 49.2145 17.0978 49.5874C17.4235 49.9602 17.6713 50.4251 17.8412 50.9821C18.0158 51.539 18.1031 52.188 18.1031 52.929ZM16.2199 54.6636V52.9149C16.2199 52.4099 16.1821 51.9756 16.1066 51.6122C16.0311 51.2488 15.9178 50.9538 15.7668 50.7272C15.6157 50.4959 15.4293 50.326 15.2075 50.2175C14.9904 50.1089 14.7402 50.0546 14.457 50.0546C14.1691 50.0546 13.9142 50.1089 13.6924 50.2175C13.4753 50.326 13.2912 50.4959 13.1402 50.7272C12.9938 50.9538 12.8829 51.2488 12.8074 51.6122C12.7319 51.9756 12.6941 52.4099 12.6941 52.9149V54.6636C12.6941 55.1592 12.7319 55.584 12.8074 55.938C12.8829 56.292 12.9962 56.5799 13.1472 56.8017C13.303 57.0235 13.4894 57.1887 13.7066 57.2973C13.9284 57.4011 14.1833 57.4531 14.4712 57.4531C14.7544 57.4531 15.0045 57.4011 15.2216 57.2973C15.4435 57.1887 15.6275 57.0235 15.7739 56.8017C15.9249 56.5799 16.0358 56.292 16.1066 55.938C16.1821 55.584 16.2199 55.1592 16.2199 54.6636Z" fill="#CE241E"/>
<path d="M26.8538 52.929V54.6636C26.8538 55.3905 26.7688 56.0276 26.5989 56.5752C26.429 57.1227 26.1836 57.5805 25.8626 57.9486C25.5417 58.3121 25.157 58.5858 24.7086 58.7699C24.2602 58.954 23.7646 59.046 23.2218 59.046C22.6743 59.046 22.1764 58.954 21.728 58.7699C21.2796 58.5858 20.8926 58.3121 20.5669 57.9486C20.246 57.5805 19.9958 57.1227 19.8164 56.5752C19.6418 56.0276 19.5545 55.3905 19.5545 54.6636V52.929C19.5545 52.188 19.6418 51.539 19.8164 50.9821C19.9911 50.4251 20.2389 49.9602 20.5598 49.5874C20.8855 49.2145 21.2725 48.9337 21.7209 48.7449C22.1693 48.5513 22.6649 48.4546 23.2077 48.4546C23.7552 48.4546 24.2508 48.5513 24.6945 48.7449C25.1428 48.9337 25.5275 49.2145 25.8485 49.5874C26.1741 49.9602 26.4219 50.4251 26.5918 50.9821C26.7665 51.539 26.8538 52.188 26.8538 52.929ZM24.9706 54.6636V52.9149C24.9706 52.4099 24.9328 51.9756 24.8573 51.6122C24.7818 51.2488 24.6685 50.9538 24.5175 50.7272C24.3664 50.4959 24.18 50.326 23.9581 50.2175C23.741 50.1089 23.4909 50.0546 23.2077 50.0546C22.9198 50.0546 22.6649 50.1089 22.4431 50.2175C22.2259 50.326 22.0419 50.4959 21.8908 50.7272C21.7445 50.9538 21.6336 51.2488 21.5581 51.6122C21.4826 51.9756 21.4448 52.4099 21.4448 52.9149V54.6636C21.4448 55.1592 21.4826 55.584 21.5581 55.938C21.6336 56.292 21.7469 56.5799 21.8979 56.8017C22.0537 57.0235 22.2401 57.1887 22.4572 57.2973C22.6791 57.4011 22.9339 57.4531 23.2218 57.4531C23.505 57.4531 23.7552 57.4011 23.9723 57.2973C24.1941 57.1887 24.3782 57.0235 24.5245 56.8017C24.6756 56.5799 24.7865 56.292 24.8573 55.938C24.9328 55.584 24.9706 55.1592 24.9706 54.6636Z" fill="#CE241E"/>
<path d="M28.4963 48.5962H31.7035C32.3879 48.5962 32.9708 48.7142 33.4522 48.9502C33.9336 49.1862 34.2994 49.5354 34.5496 49.998C34.8044 50.4605 34.9319 51.0293 34.9319 51.7042C34.9319 52.2423 34.854 52.7096 34.6982 53.106C34.5472 53.4978 34.3301 53.8258 34.0469 54.0901C33.7684 54.3544 33.431 54.5598 33.0345 54.7061L32.461 55.0318H29.8061L29.799 53.453H31.661C31.9678 53.453 32.2227 53.3845 32.4256 53.2476C32.6333 53.1108 32.7867 52.922 32.8858 52.6812C32.9897 52.4358 33.0416 52.155 33.0416 51.8387C33.0416 51.4942 32.9944 51.1992 32.9 50.9538C32.8103 50.7036 32.6663 50.5125 32.4681 50.3803C32.2746 50.2481 32.0197 50.1821 31.7035 50.1821H30.3937V58.9044H28.4963V48.5962ZM33.2398 58.9044L31.307 54.2884H33.2964L35.2646 58.8053V58.9044H33.2398Z" fill="#CE241E"/>
<path d="M42.1321 52.8299V54.4087H37.8488V52.8299H42.1321ZM38.3444 48.5962V58.9044H36.447V48.5962H38.3444ZM43.5551 48.5962V58.9044H41.6719V48.5962H43.5551Z" fill="#CE241E"/>
<path d="M52.4828 52.929V54.6636C52.4828 55.3905 52.3978 56.0276 52.2279 56.5752C52.058 57.1227 51.8126 57.5805 51.4916 57.9486C51.1707 58.3121 50.786 58.5858 50.3376 58.7699C49.8892 58.954 49.3936 59.046 48.8508 59.046C48.3033 59.046 47.8054 58.954 47.357 58.7699C46.9086 58.5858 46.5216 58.3121 46.1959 57.9486C45.8749 57.5805 45.6248 57.1227 45.4454 56.5752C45.2708 56.0276 45.1835 55.3905 45.1835 54.6636V52.929C45.1835 52.188 45.2708 51.539 45.4454 50.9821C45.6201 50.4251 45.8679 49.9602 46.1888 49.5874C46.5145 49.2145 46.9015 48.9337 47.3499 48.7449C47.7983 48.5513 48.2939 48.4546 48.8367 48.4546C49.3842 48.4546 49.8798 48.5513 50.3234 48.7449C50.7718 48.9337 51.1565 49.2145 51.4775 49.5874C51.8031 49.9602 52.0509 50.4251 52.2208 50.9821C52.3955 51.539 52.4828 52.188 52.4828 52.929ZM50.5996 54.6636V52.9149C50.5996 52.4099 50.5618 51.9756 50.4863 51.6122C50.4108 51.2488 50.2975 50.9538 50.1464 50.7272C49.9954 50.4959 49.809 50.326 49.5871 50.2175C49.37 50.1089 49.1199 50.0546 48.8367 50.0546C48.5488 50.0546 48.2939 50.1089 48.0721 50.2175C47.8549 50.326 47.6709 50.4959 47.5198 50.7272C47.3735 50.9538 47.2626 51.2488 47.1871 51.6122C47.1116 51.9756 47.0738 52.4099 47.0738 52.9149V54.6636C47.0738 55.1592 47.1116 55.584 47.1871 55.938C47.2626 56.292 47.3759 56.5799 47.5269 56.8017C47.6827 57.0235 47.8691 57.1887 48.0862 57.2973C48.308 57.4011 48.5629 57.4531 48.8508 57.4531C49.134 57.4531 49.3842 57.4011 49.6013 57.2973C49.8231 57.1887 50.0072 57.0235 50.1535 56.8017C50.3046 56.5799 50.4155 56.292 50.4863 55.938C50.5618 55.584 50.5996 55.1592 50.5996 54.6636Z" fill="#CE241E"/>
<path d="M58.798 48.5962H60.6954V55.7185C60.6954 56.5067 60.5491 57.1463 60.2564 57.6371C59.9638 58.128 59.565 58.4867 59.0599 58.7133C58.5549 58.9351 57.9862 59.046 57.3537 59.046C56.7071 59.046 56.1313 58.9351 55.6262 58.7133C55.1212 58.4867 54.7247 58.128 54.4368 57.6371C54.1536 57.1463 54.012 56.5067 54.012 55.7185V48.5962H55.9023V55.7185C55.9023 56.1858 55.959 56.5468 56.0723 56.8017C56.1903 57.0566 56.3555 57.2312 56.5678 57.3256C56.7802 57.42 57.0422 57.4672 57.3537 57.4672C57.6652 57.4672 57.9272 57.42 58.1396 57.3256C58.352 57.2312 58.5148 57.0566 58.6281 56.8017C58.7414 56.5468 58.798 56.1858 58.798 55.7185V48.5962Z" fill="#CE241E"/>
<path d="M66.7699 56.2212C66.7699 56.0182 66.7486 55.8389 66.7062 55.6831C66.6684 55.5226 66.5929 55.3763 66.4796 55.2441C66.3663 55.112 66.2035 54.9822 65.9911 54.8548C65.7787 54.7226 65.505 54.5881 65.1698 54.4512C64.7734 54.2907 64.3981 54.1208 64.0442 53.9415C63.6902 53.7574 63.3739 53.545 63.0955 53.3043C62.817 53.0636 62.5975 52.7804 62.437 52.4547C62.2813 52.129 62.2034 51.7491 62.2034 51.3148C62.2034 50.8901 62.2789 50.503 62.4299 50.1537C62.5857 49.7998 62.8052 49.4977 63.0884 49.2475C63.3716 48.9927 63.7067 48.7968 64.0937 48.6599C64.4855 48.523 64.9173 48.4546 65.3893 48.4546C66.0548 48.4546 66.6259 48.5938 67.1026 48.8723C67.5793 49.1508 67.9475 49.5284 68.2071 50.0051C68.4667 50.4818 68.5965 51.0198 68.5965 51.6193H66.7062C66.7062 51.3078 66.659 51.0316 66.5646 50.7909C66.4749 50.5455 66.3309 50.3543 66.1327 50.2175C65.9345 50.0806 65.6796 50.0122 65.3681 50.0122C65.0754 50.0122 64.8347 50.0712 64.6459 50.1891C64.4571 50.3024 64.3179 50.4582 64.2282 50.6564C64.1385 50.8499 64.0937 51.0718 64.0937 51.3219C64.0937 51.5013 64.1338 51.6641 64.2141 51.8104C64.299 51.952 64.4147 52.0818 64.561 52.1998C64.7073 52.3178 64.8843 52.4311 65.092 52.5397C65.3044 52.6435 65.5404 52.745 65.7999 52.8441C66.2767 53.0234 66.6944 53.2217 67.0531 53.4388C67.4118 53.6512 67.7091 53.8919 67.9451 54.1609C68.1859 54.4252 68.3652 54.725 68.4832 55.0601C68.6012 55.3952 68.6602 55.7775 68.6602 56.207C68.6602 56.6318 68.587 57.0188 68.4407 57.3681C68.2944 57.7174 68.082 58.0171 67.8035 58.2672C67.5251 58.5174 67.1876 58.7109 66.7911 58.8478C66.3994 58.9799 65.9628 59.046 65.4814 59.046C65.0188 59.046 64.5775 58.9799 64.1574 58.8478C63.7421 58.7109 63.3739 58.5056 63.053 58.2318C62.732 57.9581 62.4795 57.6135 62.2954 57.1982C62.1114 56.7781 62.0193 56.2849 62.0193 55.7185H63.9096C63.9096 56.0347 63.945 56.3085 64.0158 56.5398C64.0866 56.7663 64.1928 56.9504 64.3344 57.092C64.476 57.2289 64.6459 57.3303 64.8442 57.3964C65.0424 57.4578 65.2666 57.4885 65.5168 57.4885C65.8141 57.4885 66.0548 57.4342 66.2389 57.3256C66.423 57.2171 66.5575 57.0684 66.6424 56.8796C66.7274 56.6861 66.7699 56.4666 66.7699 56.2212Z" fill="#CE241E"/>
<path d="M75.9595 57.3256V58.9044H71.4851V57.3256H75.9595ZM72.0302 48.5962V58.9044H70.1328V48.5962H72.0302ZM75.3577 52.8299V54.3662H71.4851V52.8299H75.3577ZM75.9312 48.5962V50.1821H71.4851V48.5962H75.9312Z" fill="#CE241E"/>
<path d="M24.9971 68.6211H26.3246C26.2821 69.1274 26.1405 69.5787 25.8998 69.9752C25.6591 70.3681 25.321 70.6778 24.8856 70.9044C24.4502 71.1309 23.921 71.2442 23.298 71.2442C22.8201 71.2442 22.39 71.1593 22.0077 70.9894C21.6254 70.8159 21.2979 70.5716 21.0254 70.2566C20.7528 69.938 20.5439 69.5539 20.3988 69.1043C20.2572 68.6548 20.1864 68.1521 20.1864 67.5963V66.9538C20.1864 66.3981 20.259 65.8954 20.4041 65.4458C20.5528 64.9963 20.7652 64.6122 21.0413 64.2936C21.3174 63.9715 21.6484 63.7254 22.0342 63.5555C22.4236 63.3856 22.8608 63.3007 23.3458 63.3007C23.9617 63.3007 24.4821 63.4139 24.9069 63.6405C25.3317 63.867 25.6609 64.1803 25.8945 64.5803C26.1317 64.9803 26.2768 65.4388 26.3299 65.9556H25.0025C24.9671 65.6228 24.8892 65.3379 24.7688 65.1007C24.652 64.8635 24.4785 64.683 24.2485 64.5591C24.0184 64.4317 23.7175 64.3679 23.3458 64.3679C23.0413 64.3679 22.7758 64.4246 22.5493 64.5379C22.3227 64.6511 22.1334 64.8175 21.9811 65.037C21.8289 65.2565 21.7139 65.5273 21.636 65.8494C21.5617 66.168 21.5245 66.5326 21.5245 66.9432V67.5963C21.5245 67.9857 21.5581 68.3397 21.6254 68.6583C21.6962 68.9734 21.8024 69.2442 21.944 69.4707C22.0891 69.6973 22.2732 69.8725 22.4962 69.9964C22.7192 70.1203 22.9865 70.1823 23.298 70.1823C23.6768 70.1823 23.983 70.1221 24.2166 70.0017C24.4538 69.8814 24.6325 69.7061 24.7529 69.476C24.8768 69.2424 24.9582 68.9574 24.9971 68.6211Z" fill="#444444"/>
<path d="M27.1636 68.3291V68.207C27.1636 67.7928 27.2238 67.4087 27.3441 67.0547C27.4645 66.6972 27.6379 66.3875 27.8645 66.1255C28.0946 65.86 28.3742 65.6547 28.7034 65.5096C29.0362 65.3609 29.4114 65.2865 29.8291 65.2865C30.2504 65.2865 30.6256 65.3609 30.9548 65.5096C31.2876 65.6547 31.569 65.86 31.7991 66.1255C32.0292 66.3875 32.2044 66.6972 32.3248 67.0547C32.4451 67.4087 32.5053 67.7928 32.5053 68.207V68.3291C32.5053 68.7433 32.4451 69.1274 32.3248 69.4813C32.2044 69.8353 32.0292 70.1451 31.7991 70.4106C31.569 70.6725 31.2893 70.8778 30.9601 71.0265C30.6309 71.1717 30.2575 71.2442 29.8398 71.2442C29.4185 71.2442 29.0415 71.1717 28.7087 71.0265C28.3795 70.8778 28.0999 70.6725 27.8698 70.4106C27.6397 70.1451 27.4645 69.8353 27.3441 69.4813C27.2238 69.1274 27.1636 68.7433 27.1636 68.3291ZM28.4433 68.207V68.3291C28.4433 68.5875 28.4698 68.8318 28.5229 69.0619C28.576 69.292 28.6592 69.4937 28.7725 69.6672C28.8857 69.8406 29.0309 69.9769 29.2079 70.0761C29.3849 70.1752 29.5955 70.2247 29.8398 70.2247C30.0769 70.2247 30.2822 70.1752 30.4557 70.0761C30.6327 69.9769 30.7778 69.8406 30.8911 69.6672C31.0044 69.4937 31.0876 69.292 31.1407 69.0619C31.1973 68.8318 31.2256 68.5875 31.2256 68.3291V68.207C31.2256 67.9521 31.1973 67.7114 31.1407 67.4848C31.0876 67.2547 31.0026 67.0512 30.8858 66.8742C30.7725 66.6972 30.6274 66.5591 30.4504 66.46C30.2769 66.3574 30.0698 66.306 29.8291 66.306C29.5884 66.306 29.3796 66.3574 29.2026 66.46C29.0291 66.5591 28.8857 66.6972 28.7725 66.8742C28.6592 67.0512 28.576 67.2547 28.5229 67.4848C28.4698 67.7114 28.4433 67.9521 28.4433 68.207Z" fill="#444444"/>
<path d="M36.8169 69.9858V67.2459C36.8169 67.0406 36.7798 66.8636 36.7054 66.7149C36.6311 66.5662 36.5178 66.4512 36.3656 66.3698C36.2169 66.2883 36.0293 66.2476 35.8027 66.2476C35.5939 66.2476 35.4133 66.283 35.2611 66.3538C35.1089 66.4246 34.9903 66.5202 34.9054 66.6406C34.8204 66.7609 34.7779 66.8972 34.7779 67.0494H33.5036C33.5036 66.8229 33.5584 66.6034 33.6682 66.391C33.7779 66.1786 33.9372 65.9892 34.1461 65.8228C34.3549 65.6565 34.6045 65.5255 34.8947 65.4299C35.185 65.3343 35.5107 65.2865 35.8718 65.2865C36.3036 65.2865 36.6859 65.3591 37.0187 65.5043C37.355 65.6494 37.6187 65.8689 37.8099 66.1627C38.0046 66.453 38.1019 66.8176 38.1019 67.2565V69.8106C38.1019 70.0725 38.1196 70.3079 38.155 70.5168C38.194 70.7221 38.2488 70.9009 38.3196 71.0531V71.138H37.0081C36.9479 71 36.9001 70.8247 36.8647 70.6124C36.8329 70.3964 36.8169 70.1876 36.8169 69.9858ZM37.0028 67.6441L37.0134 68.4353H36.0948C35.8576 68.4353 35.6488 68.4583 35.4682 68.5043C35.2877 68.5468 35.1372 68.6105 35.0169 68.6955C34.8965 68.7804 34.8063 68.8831 34.7461 69.0035C34.6859 69.1238 34.6558 69.2601 34.6558 69.4123C34.6558 69.5645 34.6912 69.7044 34.762 69.8318C34.8328 69.9557 34.9355 70.053 35.07 70.1238C35.208 70.1946 35.3744 70.23 35.5691 70.23C35.8311 70.23 36.0594 70.1769 36.2541 70.0707C36.4523 69.961 36.6081 69.8283 36.7213 69.6725C36.8346 69.5132 36.8948 69.3628 36.9019 69.2212L37.3161 69.7893C37.2736 69.9345 37.201 70.0902 37.0983 70.2566C36.9957 70.423 36.8612 70.5823 36.6948 70.7345C36.532 70.8832 36.3355 71.0053 36.1054 71.1009C35.8788 71.1964 35.6169 71.2442 35.3195 71.2442C34.9443 71.2442 34.6098 71.1699 34.316 71.0212C34.0222 70.869 33.7921 70.6654 33.6257 70.4106C33.4593 70.1522 33.3761 69.8601 33.3761 69.5344C33.3761 69.23 33.4328 68.961 33.546 68.7273C33.6629 68.4902 33.8328 68.2919 34.0558 68.1326C34.2823 67.9733 34.5585 67.853 34.8841 67.7716C35.2098 67.6866 35.5815 67.6441 35.9992 67.6441H37.0028Z" fill="#444444"/>
<path d="M42.0737 65.3927V66.3273H38.8347V65.3927H42.0737ZM39.7692 63.9856H41.0489V69.5504C41.0489 69.7274 41.0737 69.8637 41.1232 69.9592C41.1763 70.0513 41.2489 70.1132 41.3409 70.1451C41.433 70.1769 41.5409 70.1929 41.6648 70.1929C41.7533 70.1929 41.8383 70.1876 41.9197 70.1769C42.0011 70.1663 42.0666 70.1557 42.1162 70.1451L42.1215 71.1221C42.0153 71.154 41.8914 71.1823 41.7498 71.2071C41.6117 71.2318 41.4524 71.2442 41.2719 71.2442C40.9781 71.2442 40.7179 71.1929 40.4914 71.0902C40.2648 70.984 40.0878 70.8124 39.9604 70.5752C39.8329 70.338 39.7692 70.023 39.7692 69.63V63.9856Z" fill="#444444"/>
<path d="M44.4313 65.3927V71.138H43.1463V65.3927H44.4313ZM43.0613 63.8847C43.0613 63.69 43.1251 63.529 43.2525 63.4015C43.3835 63.2706 43.564 63.2051 43.7941 63.2051C44.0207 63.2051 44.1994 63.2706 44.3304 63.4015C44.4614 63.529 44.5269 63.69 44.5269 63.8847C44.5269 64.0759 44.4614 64.2352 44.3304 64.3626C44.1994 64.4901 44.0207 64.5538 43.7941 64.5538C43.564 64.5538 43.3835 64.4901 43.2525 64.3626C43.1251 64.2352 43.0613 64.0759 43.0613 63.8847Z" fill="#444444"/>
<path d="M47.1021 66.6193V71.138H45.8225V65.3927H47.0278L47.1021 66.6193ZM46.8738 68.053L46.4597 68.0477C46.4632 67.6406 46.5198 67.2671 46.6296 66.9273C46.7428 66.5875 46.8986 66.2954 47.0968 66.0512C47.2986 65.8069 47.5393 65.6193 47.819 65.4883C48.0986 65.3538 48.4101 65.2865 48.7535 65.2865C49.0296 65.2865 49.2792 65.3255 49.5022 65.4034C49.7288 65.4777 49.9217 65.5998 50.081 65.7697C50.2438 65.9397 50.3677 66.1609 50.4527 66.4335C50.5376 66.7025 50.5801 67.0335 50.5801 67.4264V71.138H49.2951V67.4211C49.2951 67.145 49.2544 66.9273 49.173 66.768C49.0951 66.6052 48.9801 66.4901 48.8279 66.4229C48.6792 66.3521 48.4933 66.3167 48.2703 66.3167C48.0508 66.3167 47.8544 66.3627 47.6809 66.4547C47.5075 66.5468 47.3606 66.6724 47.2402 66.8317C47.1234 66.991 47.0331 67.1751 46.9694 67.3839C46.9057 67.5928 46.8738 67.8158 46.8738 68.053Z" fill="#444444"/>
<path d="M55.5661 65.3927H56.7289V70.9787C56.7289 71.4956 56.6192 71.9345 56.3997 72.2956C56.1803 72.6567 55.8741 72.931 55.4811 73.1186C55.0882 73.3098 54.6333 73.4053 54.1165 73.4053C53.897 73.4053 53.6528 73.3735 53.3837 73.3098C53.1182 73.246 52.8598 73.1434 52.6085 73.0018C52.3607 72.8637 52.1536 72.6814 51.9872 72.4549L52.5872 71.7009C52.7926 71.9451 53.0191 72.1239 53.2669 72.2372C53.5147 72.3504 53.7749 72.4071 54.0475 72.4071C54.3413 72.4071 54.5908 72.3522 54.7962 72.2425C55.005 72.1363 55.1661 71.9788 55.2794 71.7699C55.3926 71.561 55.4493 71.3062 55.4493 71.0053V66.6937L55.5661 65.3927ZM51.6633 68.3291V68.2176C51.6633 67.7822 51.7164 67.3857 51.8226 67.0282C51.9288 66.6671 52.081 66.3574 52.2793 66.099C52.4775 65.837 52.7182 65.637 53.0014 65.4989C53.2846 65.3573 53.605 65.2865 53.9625 65.2865C54.3342 65.2865 54.651 65.3538 54.913 65.4883C55.1785 65.6228 55.3997 65.8158 55.5767 66.0671C55.7537 66.3149 55.8918 66.6122 55.9909 66.9592C56.0935 67.3025 56.1696 67.6848 56.2192 68.1061V68.4619C56.1732 68.8725 56.0953 69.2477 55.9856 69.5875C55.8758 69.9274 55.7307 70.2212 55.5502 70.469C55.3696 70.7168 55.1466 70.9079 54.8811 71.0425C54.6192 71.177 54.3094 71.2442 53.9519 71.2442C53.6014 71.2442 53.2846 71.1717 53.0014 71.0265C52.7218 70.8814 52.481 70.6778 52.2793 70.4159C52.081 70.1539 51.9288 69.846 51.8226 69.492C51.7164 69.1344 51.6633 68.7468 51.6633 68.3291ZM52.943 68.2176V68.3291C52.943 68.5911 52.9678 68.8353 53.0173 69.0619C53.0704 69.2884 53.1501 69.4884 53.2563 69.6619C53.366 69.8318 53.5041 69.9663 53.6705 70.0654C53.8404 70.161 54.0404 70.2088 54.2705 70.2088C54.5714 70.2088 54.8174 70.1451 55.0085 70.0176C55.2032 69.8902 55.3519 69.7185 55.4546 69.5026C55.5608 69.2831 55.6351 69.0389 55.6776 68.7698V67.8087C55.6564 67.5999 55.6121 67.4052 55.5448 67.2247C55.4811 67.0441 55.3944 66.8866 55.2847 66.7521C55.1749 66.614 55.0369 66.5078 54.8705 66.4335C54.7041 66.3556 54.5076 66.3167 54.2811 66.3167C54.051 66.3167 53.851 66.3662 53.6811 66.4653C53.5112 66.5645 53.3713 66.7007 53.2616 66.8742C53.1554 67.0477 53.0758 67.2494 53.0227 67.4795C52.9696 67.7096 52.943 67.9556 52.943 68.2176Z" fill="#444444"/>
<path fill-rule="evenodd" clip-rule="evenodd" d="M34.9357 0.923747C33.4195 1.63278 32.4873 2.32816 30.8227 3.99189C26.7388 8.07362 23.011 14.4024 21.0196 20.6348C20.2726 22.9726 19.9649 24.3744 19.61 27.0578C19.3941 28.691 19.482 31.7609 19.7875 33.2444C20.4425 36.4266 21.7676 38.9222 23.8577 40.9095C26.0806 43.0231 29.138 43.6242 31.7377 42.4587C34.3094 41.3057 36.3315 38.7387 36.9022 35.9021C37.1181 34.829 37.1361 33.2754 36.9433 32.3492C36.7735 31.5334 36.1656 29.7493 35.2315 27.3254C34.959 26.6182 34.0278 23.9288 33.9538 23.6356C33.9123 23.4706 33.7975 23.1093 33.6989 22.8327C33.5197 22.33 33.193 21.2055 32.7622 19.6089C30.7721 12.232 31.1206 6.34441 33.7657 2.6593C33.8889 2.48757 34.2662 2.03591 34.6041 1.65552C35.2345 0.945871 35.3277 0.740424 34.9357 0.923747Z" fill="#CE241E"/>
<path fill-rule="evenodd" clip-rule="evenodd" d="M38.7121 0.0739567C38.2335 0.168642 37.2893 0.581573 36.7151 0.947286C36.0041 1.40013 34.8668 2.57926 34.4526 3.29293C34.0925 3.91349 33.6763 5.01693 33.5832 5.59799C33.3628 6.97404 33.3784 8.92808 33.6217 10.4439C33.9343 12.3913 34.7828 15.0893 35.8402 17.4976C36.9623 20.0533 38.9702 23.5191 39.963 24.6135C40.6059 25.3222 40.7069 25.1835 40.4699 23.9172C40.2734 22.8676 40.1803 20.5752 40.269 18.9705C40.4047 16.513 41.0107 13.9487 42.0092 11.6057C42.1551 11.2633 42.3546 10.7966 42.4527 10.5684C42.5507 10.3401 42.8783 9.66797 43.1809 9.07463C43.4834 8.48129 43.9384 7.58854 44.1919 7.09072C44.4455 6.59289 44.6922 6.00295 44.7401 5.77964C44.85 5.2673 44.849 4.2909 44.7381 3.80984C44.5232 2.87776 43.8367 1.78842 43.0654 1.15541C42.4914 0.684225 41.4212 0.172044 40.7978 0.0699734C40.2176 -0.0249609 39.2024 -0.0229693 38.7121 0.0739567Z" fill="#559E39"/>
<path fill-rule="evenodd" clip-rule="evenodd" d="M45.8893 3.35442C45.8615 3.4267 45.9025 3.71325 45.9805 3.99116C46.3345 5.25211 46.7864 7.34557 46.9586 8.52113C47.2299 10.373 47.2324 13.0447 46.9643 14.745C46.647 16.758 46.277 18.115 45.1704 21.3257C44.2708 23.9357 44.1749 24.3641 44.2292 25.5329C44.3043 27.1472 44.7686 28.1804 45.9455 29.3517C47.0424 30.4435 48.157 30.9358 49.5623 30.9493C51.1061 30.9641 52.2986 30.4184 53.5899 29.1064C55.6694 26.9932 56.3824 24.3494 55.8805 20.6121C55.5142 17.8846 54.184 14.4207 52.1935 11.0107C50.5945 8.27151 48.3383 5.23444 46.884 3.86345C46.2684 3.28322 45.9744 3.13269 45.8893 3.35442Z" fill="#72B8D1"/>
</svg>
